IKResults																		
version=1																		
nRows=19																		
nColumns=19																		
inDegrees=yes																		
																		
"Units are S.I. units (second, meters, Newtons, ...)"																		
"If the header above contains a line with 'inDegrees', this indicates whether rotational values are in degrees (yes) or radians (no)."																		
																		
endheader																		
time	pelvis_tilt	pelvis_list	pelvis_rotation	pelvis_tx	pelvis_ty	pelvis_tz	hip_flexion_r	hip_adduction_r	hip_rotation_r	knee_angle_r	knee_angle_r_beta	ankle_angle_r	hip_flexion_l	hip_adduction_l	hip_rotation_l	knee_angle_l	knee_angle_l_beta	ankle_angle_l
5.91	0.1536202	5.48587248	174.2692221	0	0.85358832	-0.47912647	16.54448231	3.59289777	-9.51674001	22.43128075	0.3914997	5.32054056	4.79297338	-14.28862944	-9.43646632	22.76537175	0.39733069	-16.31792935
5.92	-0.00177089	5.39470234	174.4864677	0	0.85483131	-0.48023538	15.70663904	3.57988016	-9.45680362	22.02800945	0.38446129	5.68859978	5.88394225	-14.43092642	-9.00096166	24.60670819	0.42946808	-15.41971051
5.93	-0.24959685	5.23991288	174.6587527	0	0.85612838	-0.48120384	14.85025052	3.50465886	-9.20243229	21.75200077	0.37964403	6.04275173	6.82258119	-14.32509227	-8.44807345	26.17334993	0.45681113	-14.51121069
5.94	-0.37268387	5.09057902	174.8172568	0	0.85717141	-0.48213289	14.15756889	3.41837543	-9.09143353	21.5000461	0.37524659	6.25924908	7.92296719	-14.2624967	-8.03933809	27.66054684	0.48276762	-13.27378257
5.95	-0.63199921	4.88449044	174.9783053	0	0.85836841	-0.48295243	13.30010908	3.26799719	-8.91217036	21.20653636	0.37012388	6.64078033	8.78430705	-14.03125751	-7.65090537	28.80036268	0.50266115	-11.99514222
5.96	-0.85630566	4.689434	175.1528608	0	0.85944562	-0.48366437	12.492544	3.12361034	-8.73894322	20.92430495	0.36519802	6.98758374	9.66628286	-13.78392051	-7.31396676	29.74522999	0.5191522	-10.57249148
5.97	-1.04253041	4.51430683	175.3108665	0	0.86037124	-0.48432118	11.76744126	2.99141165	-8.61419682	20.70412292	0.36135511	7.28684577	10.56816016	-13.55205948	-7.07198191	30.49740414	0.53228012	-9.10639653
5.98	-1.22941953	4.30292984	175.4620997	0	0.86125602	-0.48490082	11.04476131	2.81997631	-8.45619944	20.47308925	0.35732282	7.61854439	11.40232517	-13.2406594	-6.90866329	30.96015785	0.54035669	-7.73078694
5.99	-1.39620112	4.13202679	175.6233837	0	0.86200111	-0.48540981	10.37749352	2.67486187	-8.39372089	20.30098026	0.35431895	7.91724558	12.24229904	-12.99487139	-6.85809632	31.23565073	0.54516495	-6.3087907
6	-1.51462735	3.88850883	175.7358779	0	0.86267371	-0.48591381	9.75717972	2.46800473	-8.26528666	20.09227992	0.35067644	8.21041575	13.04702935	-12.68107938	-6.99521374	31.18288917	0.54424409	-5.40104319
6.01	-1.67433763	3.73867901	175.924726	0	0.86323827	-0.48619904	9.12278635	2.33585737	-8.15663237	19.96547743	0.34846332	8.60685977	13.78796302	-12.36343513	-6.96815767	30.95482029	0.54026353	-3.98038386
6.02	-1.82260115	3.59010063	176.0838324	0	0.86366428	-0.48648277	8.53278989	2.19059838	-8.1474044	19.88197773	0.34700597	8.9435833	14.50220978	-12.10365	-7.14650301	30.53012659	0.53285123	-2.89178128
6.03	-1.92152076	3.43162428	176.2374725	0	0.86397068	-0.48673337	7.9976593	2.04337017	-8.09343364	19.79622083	0.34550923	9.29909793	15.21485695	-11.82664308	-7.38366847	29.86749101	0.52128606	-2.02239723
6.04	-1.93831592	3.37812331	176.3935817	0	0.86409939	-0.4868791	7.56331346	2.00310104	-8.11129978	19.734481	0.34443167	9.59201032	15.99429164	-11.69321847	-7.72794409	29.04899326	0.50700058	-1.42015824
6.05	-2.07713306	3.15484598	176.5415585	0	0.86424565	-0.48698441	7.03246244	1.77219502	-8.01512906	19.7353571	0.34444696	10.06289825	16.54296251	-11.26789849	-8.0172778	27.9537692	0.48788531	-0.64118497
6.06	-2.04070339	3.24836781	176.703599	0	0.86403683	-0.48713281	6.68938936	1.87385617	-8.17406434	19.73357612	0.34441588	10.3230107	17.33873884	-11.34550373	-8.48036045	26.8850718	0.46923302	-0.24714649
6.07	-1.9988671	3.28442875	176.8729936	0	0.86375204	-0.4871537	6.35459425	1.91773167	-8.23000037	19.74502902	0.34461577	10.66608197	18.07496052	-11.28482551	-8.90982308	25.61601593	0.44708382	0.18014745
6.08	-2.21127605	2.94181415	176.961891	0	0.86378045	-0.48701424	5.82794644	1.51848444	-8.14201078	19.90704198	0.34744343	11.25578117	18.27773667	-10.64261854	-9.40091412	23.79522889	0.41530509	0.36552822
6.09	-2.25590188	2.89702788	177.1022562	0	0.86346279	-0.48693113	5.44340893	1.45784781	-8.17324563	19.99721082	0.34901717	11.65860757	18.76281013	-10.42087376	-9.89167952	22.11626534	0.38600165	0.50258583
